<?xml version="1.0" encoding="UTF-8"?>
<svg height="16px" viewBox="0 0 16 16" width="16px" xmlns="http://www.w3.org/2000/svg">
    <g fill="#241f31">
        <path d="m 2 3 h 1.039062 v 11 h -1.039062 z m 0 0"/>
        <path d="m 2 3 v 1.015625 h -2 v -1.015625 z m 0 0"/>
        <path d="m 3.980469 4 c -0.542969 0 -0.980469 0.4375 -0.980469 0.980469 v 6.039062 c 0 0.542969 0.4375 0.980469 0.980469 0.980469 h 10.019531 h 0.019531 c 0.542969 0 0.980469 -0.4375 0.980469 -0.980469 v -6.039062 c 0 -0.542969 -0.4375 -0.980469 -0.980469 -0.980469 c -0.007812 0 -0.011719 0 -0.019531 0 z m 2.019531 2 c 1.105469 0 2 0.894531 2 2 s -0.894531 2 -2 2 s -2 -0.894531 -2 -2 s 0.894531 -2 2 -2 z m 6 0 c 1.105469 0 2 0.894531 2 2 s -0.894531 2 -2 2 s -2 -0.894531 -2 -2 s 0.894531 -2 2 -2 z m 0 0"/>
        <path d="m 10 11.960938 v 1.039062 h -5 v -1.039062 z m 0 0"/>
    </g>
</svg>
