<?xml version="1.0" encoding="UTF-8"?>
<svg height="128px" viewBox="0 0 128 128" width="128px" xmlns="http://www.w3.org/2000/svg" xmlns:xlink="http://www.w3.org/1999/xlink">
    <linearGradient id="a" gradientUnits="userSpaceOnUse" x1="8" x2="120" y1="87.64832275" y2="87.64832275">
        <stop offset="0" stop-color="#5c1c22"/>
        <stop offset="0.0357143" stop-color="#8d2933"/>
        <stop offset="0.0714286" stop-color="#5c1c22"/>
        <stop offset="0.928571" stop-color="#5c1c22"/>
        <stop offset="0.964286" stop-color="#8d2933"/>
        <stop offset="1" stop-color="#5c1c22"/>
    </linearGradient>
    <linearGradient id="b" gradientUnits="userSpaceOnUse">
        <stop offset="0" stop-color="#9d9c98"/>
        <stop offset="1" stop-color="#504f53"/>
    </linearGradient>
    <linearGradient id="c" x1="42.35788" x2="42.35788" xlink:href="#b" y1="47.978668" y2="91.58139"/>
    <linearGradient id="d" x1="87.485211" x2="87.485211" xlink:href="#b" y1="47.978694" y2="91.581416"/>
    <linearGradient id="e" gradientUnits="userSpaceOnUse">
        <stop offset="0" stop-color="#5e5c64"/>
        <stop offset="1" stop-color="#241f31"/>
    </linearGradient>
    <linearGradient id="f" x1="43.44748675149" x2="35.77558722731" xlink:href="#e" y1="54.4568289768" y2="62.11751808591"/>
    <linearGradient id="g" x1="49.21084152563" x2="49.21084152563" xlink:href="#e" y1="55.77708691937" y2="63.74663204123"/>
    <linearGradient id="h" x1="54.07657825711" x2="54.07657825711" xlink:href="#e" y1="70.91586348657" y2="63.52165278914"/>
    <linearGradient id="i" x1="52.60736996682" x2="52.60736996682" xlink:href="#e" y1="79.60647534291" y2="72.37650182933"/>
    <linearGradient id="j" x1="38.94045861537" x2="46.92551429821" xlink:href="#e" y1="79.51286732274" y2="86.90732900345"/>
    <linearGradient id="k" x1="30.74531038339" x2="36.12748430103" xlink:href="#e" y1="77.95570122194" y2="84.77457800925"/>
    <linearGradient id="l" x1="28.67281440586" x2="28.67281440586" xlink:href="#e" y1="68.11622677346" y2="75.79822991759"/>
    <linearGradient id="m" x1="29.78896071028" x2="29.78896071028" xlink:href="#e" y1="57.93878070882" y2="69.0712819283"/>
    <linearGradient id="n" x1="41.69558694108" x2="41.69558694108" xlink:href="#e" y1="67.31840904337" y2="83.99707038106"/>
    <linearGradient id="o" x1="88.57481275149" x2="80.90291322731" xlink:href="#e" y1="54.4568289768" y2="62.11751808591"/>
    <linearGradient id="p" x1="94.33816752563" x2="94.33816752563" xlink:href="#e" y1="55.77708691937" y2="63.74663204123"/>
    <linearGradient id="q" x1="99.20390425711" x2="99.20390425711" xlink:href="#e" y1="70.91586348657" y2="63.52165278914"/>
    <linearGradient id="r" x1="97.73469596682" x2="97.73469596682" xlink:href="#e" y1="79.60647534291" y2="72.37650182933"/>
    <linearGradient id="s" x1="84.06778461537" x2="92.05284029821" xlink:href="#e" y1="79.51286732274" y2="86.90732900345"/>
    <linearGradient id="t" x1="75.87263638339" x2="81.25481030103" xlink:href="#e" y1="77.95570122194" y2="84.77457800925"/>
    <linearGradient id="u" x1="73.80014040586" x2="73.80014040586" xlink:href="#e" y1="68.11622677346" y2="75.79822991759"/>
    <linearGradient id="v" x1="74.91628671028" x2="74.91628671028" xlink:href="#e" y1="57.93878070882" y2="69.0712819283"/>
    <linearGradient id="w" x1="86.82291294108" x2="86.82291294108" xlink:href="#e" y1="67.31840904337" y2="83.99707038106"/>
    <path d="m 7.988281 89.402344 v 15.097656 s 0.195313 0.429688 0.433594 0.429688 h 6.875 c 0.238281 0 0.429687 -0.191407 0.429687 -0.429688 v -3.296875 h 0.019532 v -0.152344 c 0 -0.238281 0.191406 -0.429687 0.429687 -0.429687 h 8.921875 c 0.234375 0 0.425782 0.191406 0.425782 0.429687 v 3.492188 c 0 0.234375 0.1875 0.425781 0.421874 0.425781 h 3.3125 c 0.230469 0 0.421876 -0.191406 0.421876 -0.425781 v -3.339844 c 0.152343 -0.398437 0.582031 -0.675781 0.992187 -0.675781 c 0.40625 0 0.835937 0.277344 0.988281 0.675781 v 5.691406 c 0 0.238281 0.191406 0.429688 0.429688 0.429688 h 4.917968 c 0.234376 0 0.429688 -0.191407 0.429688 -0.429688 v -3.515625 c 0 -0.332031 0.230469 -0.601562 0.523438 -0.601562 c 0.289062 0 0.523437 0.269531 0.523437 0.601562 v 0.183594 h 0.003906 v 3.332031 c 0 0.238281 0.191407 0.429688 0.429688 0.429688 h 36.316406 c 0.238281 0 0.429687 -0.191407 0.429687 -0.429688 v -3.714843 c 0.078126 -0.445313 0.4375 -0.785157 0.851563 -0.785157 s 0.769531 0.339844 0.847656 0.785157 v 2.117187 c 0 0.238281 0.191407 0.429687 0.421875 0.429687 h 5.277344 l 0.769531 -1.320312 v -1.152344 h -2.007812 c -0.480469 0 -0.863281 -0.300781 -0.953125 -0.691406 v -2.792969 h -65.914063 v -3.285156 z m 0 0" fill="#302b36"/>
    <g fill="#e5a50a">
        <path d="m 31.921875 104.402344 h -0.113281 c -0.074219 0 -0.136719 0.074218 -0.136719 0.164062 v 1.8125 c 0 0.085938 0.0625 0.160156 0.136719 0.160156 h 0.113281 c 0.074219 0 0.136719 -0.074218 0.136719 -0.160156 v -1.8125 c 0 -0.089844 -0.0625 -0.164062 -0.136719 -0.164062 z m 0 0"/>
        <path d="m 32.445312 104.402344 h -0.109374 c -0.074219 0 -0.136719 0.074218 -0.136719 0.164062 v 1.8125 c 0 0.085938 0.0625 0.160156 0.136719 0.160156 h 0.109374 c 0.078126 0 0.140626 -0.074218 0.140626 -0.160156 v -1.8125 c 0 -0.089844 -0.0625 -0.164062 -0.140626 -0.164062 z m 0 0"/>
        <path d="m 32.972656 104.402344 h -0.113281 c -0.074219 0 -0.136719 0.074218 -0.136719 0.164062 v 1.8125 c 0 0.085938 0.0625 0.160156 0.136719 0.160156 h 0.113281 c 0.074219 0 0.136719 -0.074218 0.136719 -0.160156 v -1.8125 c 0 -0.089844 -0.0625 -0.164062 -0.136719 -0.164062 z m 0 0"/>
        <path d="m 33.496094 104.402344 h -0.109375 c -0.074219 0 -0.136719 0.074218 -0.136719 0.164062 v 1.8125 c 0 0.085938 0.0625 0.160156 0.136719 0.160156 h 0.109375 c 0.078125 0 0.140625 -0.074218 0.140625 -0.160156 v -1.8125 c 0 -0.089844 -0.0625 -0.164062 -0.140625 -0.164062 z m 0 0"/>
        <path d="m 34.023438 104.402344 h -0.113282 c -0.074218 0 -0.136718 0.074218 -0.136718 0.164062 v 1.8125 c 0 0.085938 0.0625 0.160156 0.136718 0.160156 h 0.113282 c 0.074218 0 0.136718 -0.074218 0.136718 -0.160156 v -1.8125 c 0 -0.089844 -0.0625 -0.164062 -0.136718 -0.164062 z m 0 0"/>
        <path d="m 34.546875 104.402344 h -0.109375 c -0.074219 0 -0.136719 0.074218 -0.136719 0.164062 v 1.8125 c 0 0.085938 0.0625 0.160156 0.136719 0.160156 h 0.109375 c 0.078125 0 0.140625 -0.074218 0.140625 -0.160156 v -1.8125 c 0 -0.089844 -0.0625 -0.164062 -0.140625 -0.164062 z m 0 0"/>
        <path d="m 35.074219 104.402344 h -0.113281 c -0.074219 0 -0.136719 0.074218 -0.136719 0.164062 v 1.8125 c 0 0.085938 0.0625 0.160156 0.136719 0.160156 h 0.113281 c 0.074219 0 0.136719 -0.074218 0.136719 -0.160156 v -1.8125 c 0 -0.089844 -0.0625 -0.164062 -0.136719 -0.164062 z m 0 0"/>
        <path d="m 35.597656 104.402344 h -0.109375 c -0.074219 0 -0.136719 0.074218 -0.136719 0.164062 v 1.8125 c 0 0.085938 0.0625 0.160156 0.136719 0.160156 h 0.109375 c 0.078125 0 0.140625 -0.074218 0.140625 -0.160156 v -1.8125 c 0 -0.089844 -0.0625 -0.164062 -0.140625 -0.164062 z m 0 0"/>
        <path d="m 36.125 104.402344 h -0.113281 c -0.074219 0 -0.136719 0.074218 -0.136719 0.164062 v 1.8125 c 0 0.085938 0.0625 0.160156 0.136719 0.160156 h 0.113281 c 0.074219 0 0.136719 -0.074218 0.136719 -0.160156 v -1.8125 c 0 -0.089844 -0.0625 -0.164062 -0.136719 -0.164062 z m 0 0"/>
        <path d="m 36.648438 104.402344 h -0.109376 c -0.074218 0 -0.136718 0.074218 -0.136718 0.164062 v 1.8125 c 0 0.085938 0.0625 0.160156 0.136718 0.160156 h 0.109376 c 0.078124 0 0.140624 -0.074218 0.140624 -0.160156 v -1.8125 c 0 -0.089844 -0.0625 -0.164062 -0.140624 -0.164062 z m 0 0"/>
        <path d="m 37.175781 104.402344 h -0.113281 c -0.074219 0 -0.136719 0.074218 -0.136719 0.164062 v 1.8125 c 0 0.085938 0.0625 0.160156 0.136719 0.160156 h 0.113281 c 0.074219 0 0.136719 -0.074218 0.136719 -0.160156 v -1.8125 c 0 -0.089844 -0.0625 -0.164062 -0.136719 -0.164062 z m 0 0"/>
        <path d="m 38.714844 104.402344 h -0.113282 c -0.074218 0 -0.136718 0.074218 -0.136718 0.164062 v 1.8125 c 0 0.085938 0.0625 0.160156 0.136718 0.160156 h 0.113282 c 0.074218 0 0.136718 -0.074218 0.136718 -0.160156 v -1.8125 c 0 -0.089844 -0.0625 -0.164062 -0.136718 -0.164062 z m 0 0"/>
        <path d="m 39.238281 104.402344 h -0.109375 c -0.078125 0 -0.136718 0.074218 -0.136718 0.164062 v 1.8125 c 0 0.085938 0.058593 0.160156 0.136718 0.160156 h 0.109375 c 0.078125 0 0.136719 -0.074218 0.136719 -0.160156 v -1.8125 c 0 -0.089844 -0.058594 -0.164062 -0.136719 -0.164062 z m 0 0"/>
        <path d="m 39.765625 104.402344 h -0.113281 c -0.074219 0 -0.136719 0.074218 -0.136719 0.164062 v 1.8125 c 0 0.085938 0.0625 0.160156 0.136719 0.160156 h 0.113281 c 0.074219 0 0.136719 -0.074218 0.136719 -0.160156 v -1.8125 c 0 -0.089844 -0.0625 -0.164062 -0.136719 -0.164062 z m 0 0"/>
        <path d="m 40.289062 104.402344 h -0.109374 c -0.078126 0 -0.136719 0.074218 -0.136719 0.164062 v 1.8125 c 0 0.085938 0.058593 0.160156 0.136719 0.160156 h 0.109374 c 0.078126 0 0.136719 -0.074218 0.136719 -0.160156 v -1.8125 c 0 -0.089844 -0.058593 -0.164062 -0.136719 -0.164062 z m 0 0"/>
        <path d="m 40.816406 104.402344 h -0.113281 c -0.074219 0 -0.136719 0.074218 -0.136719 0.164062 v 1.8125 c 0 0.085938 0.0625 0.160156 0.136719 0.160156 h 0.113281 c 0.074219 0 0.136719 -0.074218 0.136719 -0.160156 v -1.8125 c 0 -0.089844 -0.0625 -0.164062 -0.136719 -0.164062 z m 0 0"/>
        <path d="m 41.339844 104.402344 h -0.109375 c -0.078125 0 -0.136719 0.074218 -0.136719 0.164062 v 1.8125 c 0 0.085938 0.058594 0.160156 0.136719 0.160156 h 0.109375 c 0.078125 0 0.136718 -0.074218 0.136718 -0.160156 v -1.8125 c 0 -0.089844 -0.058593 -0.164062 -0.136718 -0.164062 z m 0 0"/>
        <path d="m 41.867188 104.402344 h -0.113282 c -0.074218 0 -0.136718 0.074218 -0.136718 0.164062 v 1.8125 c 0 0.085938 0.0625 0.160156 0.136718 0.160156 h 0.113282 c 0.074218 0 0.136718 -0.074218 0.136718 -0.160156 v -1.8125 c 0 -0.089844 -0.0625 -0.164062 -0.136718 -0.164062 z m 0 0"/>
        <path d="m 42.390625 104.402344 h -0.109375 c -0.078125 0 -0.136719 0.074218 -0.136719 0.164062 v 1.8125 c 0 0.085938 0.058594 0.160156 0.136719 0.160156 h 0.109375 c 0.078125 0 0.136719 -0.074218 0.136719 -0.160156 v -1.8125 c 0 -0.089844 -0.058594 -0.164062 -0.136719 -0.164062 z m 0 0"/>
        <path d="m 42.917969 104.402344 h -0.113281 c -0.074219 0 -0.136719 0.074218 -0.136719 0.164062 v 1.8125 c 0 0.085938 0.0625 0.160156 0.136719 0.160156 h 0.113281 c 0.074219 0 0.136719 -0.074218 0.136719 -0.160156 v -1.8125 c 0 -0.089844 -0.0625 -0.164062 -0.136719 -0.164062 z m 0 0"/>
        <path d="m 43.441406 104.402344 h -0.109375 c -0.078125 0 -0.136719 0.074218 -0.136719 0.164062 v 1.8125 c 0 0.085938 0.058594 0.160156 0.136719 0.160156 h 0.109375 c 0.078125 0 0.136719 -0.074218 0.136719 -0.160156 v -1.8125 c 0 -0.089844 -0.058594 -0.164062 -0.136719 -0.164062 z m 0 0"/>
        <path d="m 43.96875 104.402344 h -0.113281 c -0.074219 0 -0.136719 0.074218 -0.136719 0.164062 v 1.8125 c 0 0.085938 0.0625 0.160156 0.136719 0.160156 h 0.113281 c 0.074219 0 0.136719 -0.074218 0.136719 -0.160156 v -1.8125 c 0 -0.089844 -0.0625 -0.164062 -0.136719 -0.164062 z m 0 0"/>
        <path d="m 44.492188 104.402344 h -0.109376 c -0.078124 0 -0.136718 0.074218 -0.136718 0.164062 v 1.8125 c 0 0.085938 0.058594 0.160156 0.136718 0.160156 h 0.109376 c 0.078124 0 0.136718 -0.074218 0.136718 -0.160156 v -1.8125 c 0 -0.089844 -0.058594 -0.164062 -0.136718 -0.164062 z m 0 0"/>
        <path d="m 45.019531 104.402344 h -0.113281 c -0.074219 0 -0.136719 0.074218 -0.136719 0.164062 v 1.8125 c 0 0.085938 0.0625 0.160156 0.136719 0.160156 h 0.113281 c 0.074219 0 0.136719 -0.074218 0.136719 -0.160156 v -1.8125 c 0 -0.089844 -0.0625 -0.164062 -0.136719 -0.164062 z m 0 0"/>
        <path d="m 45.542969 104.402344 h -0.109375 c -0.078125 0 -0.136719 0.074218 -0.136719 0.164062 v 1.8125 c 0 0.085938 0.058594 0.160156 0.136719 0.160156 h 0.109375 c 0.078125 0 0.136719 -0.074218 0.136719 -0.160156 v -1.8125 c 0 -0.089844 -0.058594 -0.164062 -0.136719 -0.164062 z m 0 0"/>
        <path d="m 46.070312 104.402344 h -0.113281 c -0.074219 0 -0.136719 0.074218 -0.136719 0.164062 v 1.8125 c 0 0.085938 0.0625 0.160156 0.136719 0.160156 h 0.113281 c 0.074219 0 0.136719 -0.074218 0.136719 -0.160156 v -1.8125 c 0 -0.089844 -0.0625 -0.164062 -0.136719 -0.164062 z m 0 0"/>
        <path d="m 46.59375 104.402344 h -0.109375 c -0.078125 0 -0.136719 0.074218 -0.136719 0.164062 v 1.8125 c 0 0.085938 0.058594 0.160156 0.136719 0.160156 h 0.109375 c 0.078125 0 0.136719 -0.074218 0.136719 -0.160156 v -1.8125 c 0 -0.089844 -0.058594 -0.164062 -0.136719 -0.164062 z m 0 0"/>
        <path d="m 47.121094 104.402344 h -0.113282 c -0.074218 0 -0.136718 0.074218 -0.136718 0.164062 v 1.8125 c 0 0.085938 0.0625 0.160156 0.136718 0.160156 h 0.113282 c 0.074218 0 0.136718 -0.074218 0.136718 -0.160156 v -1.8125 c 0 -0.089844 -0.0625 -0.164062 -0.136718 -0.164062 z m 0 0"/>
        <path d="m 47.644531 104.402344 h -0.109375 c -0.078125 0 -0.136718 0.074218 -0.136718 0.164062 v 1.8125 c 0 0.085938 0.058593 0.160156 0.136718 0.160156 h 0.109375 c 0.078125 0 0.136719 -0.074218 0.136719 -0.160156 v -1.8125 c 0 -0.089844 -0.058594 -0.164062 -0.136719 -0.164062 z m 0 0"/>
        <path d="m 48.171875 104.402344 h -0.113281 c -0.074219 0 -0.136719 0.074218 -0.136719 0.164062 v 1.8125 c 0 0.085938 0.0625 0.160156 0.136719 0.160156 h 0.113281 c 0.074219 0 0.136719 -0.074218 0.136719 -0.160156 v -1.8125 c 0 -0.089844 -0.0625 -0.164062 -0.136719 -0.164062 z m 0 0"/>
        <path d="m 48.695312 104.402344 h -0.109374 c -0.078126 0 -0.136719 0.074218 -0.136719 0.164062 v 1.8125 c 0 0.085938 0.058593 0.160156 0.136719 0.160156 h 0.109374 c 0.078126 0 0.136719 -0.074218 0.136719 -0.160156 v -1.8125 c 0 -0.089844 -0.058593 -0.164062 -0.136719 -0.164062 z m 0 0"/>
        <path d="m 49.222656 104.402344 h -0.113281 c -0.074219 0 -0.136719 0.074218 -0.136719 0.164062 v 1.8125 c 0 0.085938 0.0625 0.160156 0.136719 0.160156 h 0.113281 c 0.074219 0 0.136719 -0.074218 0.136719 -0.160156 v -1.8125 c 0 -0.089844 -0.0625 -0.164062 -0.136719 -0.164062 z m 0 0"/>
        <path d="m 49.746094 104.402344 h -0.109375 c -0.078125 0 -0.136719 0.074218 -0.136719 0.164062 v 1.8125 c 0 0.085938 0.058594 0.160156 0.136719 0.160156 h 0.109375 c 0.078125 0 0.136718 -0.074218 0.136718 -0.160156 v -1.8125 c 0 -0.089844 -0.058593 -0.164062 -0.136718 -0.164062 z m 0 0"/>
        <path d="m 50.273438 104.402344 h -0.113282 c -0.074218 0 -0.136718 0.074218 -0.136718 0.164062 v 1.8125 c 0 0.085938 0.0625 0.160156 0.136718 0.160156 h 0.113282 c 0.074218 0 0.136718 -0.074218 0.136718 -0.160156 v -1.8125 c 0 -0.089844 -0.0625 -0.164062 -0.136718 -0.164062 z m 0 0"/>
        <path d="m 50.796875 104.402344 h -0.109375 c -0.078125 0 -0.136719 0.074218 -0.136719 0.164062 v 1.8125 c 0 0.085938 0.058594 0.160156 0.136719 0.160156 h 0.109375 c 0.078125 0 0.136719 -0.074218 0.136719 -0.160156 v -1.8125 c 0 -0.089844 -0.058594 -0.164062 -0.136719 -0.164062 z m 0 0"/>
        <path d="m 51.324219 104.402344 h -0.113281 c -0.074219 0 -0.136719 0.074218 -0.136719 0.164062 v 1.8125 c 0 0.085938 0.0625 0.160156 0.136719 0.160156 h 0.113281 c 0.074219 0 0.136719 -0.074218 0.136719 -0.160156 v -1.8125 c 0 -0.089844 -0.0625 -0.164062 -0.136719 -0.164062 z m 0 0"/>
        <path d="m 51.847656 104.402344 h -0.109375 c -0.078125 0 -0.136719 0.074218 -0.136719 0.164062 v 1.8125 c 0 0.085938 0.058594 0.160156 0.136719 0.160156 h 0.109375 c 0.078125 0 0.136719 -0.074218 0.136719 -0.160156 v -1.8125 c 0 -0.089844 -0.058594 -0.164062 -0.136719 -0.164062 z m 0 0"/>
        <path d="m 52.375 104.402344 h -0.113281 c -0.074219 0 -0.136719 0.074218 -0.136719 0.164062 v 1.8125 c 0 0.085938 0.0625 0.160156 0.136719 0.160156 h 0.113281 c 0.074219 0 0.136719 -0.074218 0.136719 -0.160156 v -1.8125 c 0 -0.089844 -0.0625 -0.164062 -0.136719 -0.164062 z m 0 0"/>
        <path d="m 52.898438 104.402344 h -0.109376 c -0.078124 0 -0.136718 0.074218 -0.136718 0.164062 v 1.8125 c 0 0.085938 0.058594 0.160156 0.136718 0.160156 h 0.109376 c 0.078124 0 0.136718 -0.074218 0.136718 -0.160156 v -1.8125 c 0 -0.089844 -0.058594 -0.164062 -0.136718 -0.164062 z m 0 0"/>
        <path d="m 53.425781 104.402344 h -0.113281 c -0.074219 0 -0.136719 0.074218 -0.136719 0.164062 v 1.8125 c 0 0.085938 0.0625 0.160156 0.136719 0.160156 h 0.113281 c 0.074219 0 0.136719 -0.074218 0.136719 -0.160156 v -1.8125 c 0 -0.089844 -0.0625 -0.164062 -0.136719 -0.164062 z m 0 0"/>
        <path d="m 53.949219 104.402344 h -0.109375 c -0.078125 0 -0.136719 0.074218 -0.136719 0.164062 v 1.8125 c 0 0.085938 0.058594 0.160156 0.136719 0.160156 h 0.109375 c 0.078125 0 0.136719 -0.074218 0.136719 -0.160156 v -1.8125 c 0 -0.089844 -0.058594 -0.164062 -0.136719 -0.164062 z m 0 0"/>
        <path d="m 54.476562 104.402344 h -0.113281 c -0.074219 0 -0.136719 0.074218 -0.136719 0.164062 v 1.8125 c 0 0.085938 0.0625 0.160156 0.136719 0.160156 h 0.113281 c 0.074219 0 0.136719 -0.074218 0.136719 -0.160156 v -1.8125 c 0 -0.089844 -0.0625 -0.164062 -0.136719 -0.164062 z m 0 0"/>
        <path d="m 55 104.402344 h -0.109375 c -0.078125 0 -0.136719 0.074218 -0.136719 0.164062 v 1.8125 c 0 0.085938 0.058594 0.160156 0.136719 0.160156 h 0.109375 c 0.078125 0 0.136719 -0.074218 0.136719 -0.160156 v -1.8125 c 0 -0.089844 -0.058594 -0.164062 -0.136719 -0.164062 z m 0 0"/>
        <path d="m 55.527344 104.402344 h -0.113282 c -0.074218 0 -0.136718 0.074218 -0.136718 0.164062 v 1.8125 c 0 0.085938 0.0625 0.160156 0.136718 0.160156 h 0.113282 c 0.074218 0 0.136718 -0.074218 0.136718 -0.160156 v -1.8125 c 0 -0.089844 -0.0625 -0.164062 -0.136718 -0.164062 z m 0 0"/>
        <path d="m 56.050781 104.402344 h -0.109375 c -0.078125 0 -0.140625 0.074218 -0.140625 0.164062 v 1.8125 c 0 0.085938 0.0625 0.160156 0.140625 0.160156 h 0.109375 c 0.078125 0 0.136719 -0.074218 0.136719 -0.160156 v -1.8125 c 0 -0.089844 -0.058594 -0.164062 -0.136719 -0.164062 z m 0 0"/>
        <path d="m 56.578125 104.402344 h -0.113281 c -0.074219 0 -0.136719 0.074218 -0.136719 0.164062 v 1.8125 c 0 0.085938 0.0625 0.160156 0.136719 0.160156 h 0.113281 c 0.074219 0 0.136719 -0.074218 0.136719 -0.160156 v -1.8125 c 0 -0.089844 -0.0625 -0.164062 -0.136719 -0.164062 z m 0 0"/>
        <path d="m 57.101562 104.402344 h -0.109374 c -0.078126 0 -0.140626 0.074218 -0.140626 0.164062 v 1.8125 c 0 0.085938 0.0625 0.160156 0.140626 0.160156 h 0.109374 c 0.078126 0 0.136719 -0.074218 0.136719 -0.160156 v -1.8125 c 0 -0.089844 -0.058593 -0.164062 -0.136719 -0.164062 z m 0 0"/>
        <path d="m 57.628906 104.402344 h -0.113281 c -0.074219 0 -0.136719 0.074218 -0.136719 0.164062 v 1.8125 c 0 0.085938 0.0625 0.160156 0.136719 0.160156 h 0.113281 c 0.074219 0 0.136719 -0.074218 0.136719 -0.160156 v -1.8125 c 0 -0.089844 -0.0625 -0.164062 -0.136719 -0.164062 z m 0 0"/>
        <path d="m 58.152344 104.402344 h -0.109375 c -0.078125 0 -0.140625 0.074218 -0.140625 0.164062 v 1.8125 c 0 0.085938 0.0625 0.160156 0.140625 0.160156 h 0.109375 c 0.078125 0 0.136718 -0.074218 0.136718 -0.160156 v -1.8125 c 0 -0.089844 -0.058593 -0.164062 -0.136718 -0.164062 z m 0 0"/>
        <path d="m 58.679688 104.402344 h -0.113282 c -0.074218 0 -0.136718 0.074218 -0.136718 0.164062 v 1.8125 c 0 0.085938 0.0625 0.160156 0.136718 0.160156 h 0.113282 c 0.074218 0 0.136718 -0.074218 0.136718 -0.160156 v -1.8125 c 0 -0.089844 -0.0625 -0.164062 -0.136718 -0.164062 z m 0 0"/>
        <path d="m 59.203125 104.402344 h -0.109375 c -0.078125 0 -0.140625 0.074218 -0.140625 0.164062 v 1.8125 c 0 0.085938 0.0625 0.160156 0.140625 0.160156 h 0.109375 c 0.078125 0 0.136719 -0.074218 0.136719 -0.160156 v -1.8125 c 0 -0.089844 -0.058594 -0.164062 -0.136719 -0.164062 z m 0 0"/>
        <path d="m 59.730469 104.402344 h -0.113281 c -0.074219 0 -0.136719 0.074218 -0.136719 0.164062 v 1.8125 c 0 0.085938 0.0625 0.160156 0.136719 0.160156 h 0.113281 c 0.074219 0 0.136719 -0.074218 0.136719 -0.160156 v -1.8125 c 0 -0.089844 -0.0625 -0.164062 -0.136719 -0.164062 z m 0 0"/>
        <path d="m 60.253906 104.402344 h -0.109375 c -0.078125 0 -0.140625 0.074218 -0.140625 0.164062 v 1.8125 c 0 0.085938 0.0625 0.160156 0.140625 0.160156 h 0.109375 c 0.078125 0 0.136719 -0.074218 0.136719 -0.160156 v -1.8125 c 0 -0.089844 -0.058594 -0.164062 -0.136719 -0.164062 z m 0 0"/>
        <path d="m 60.78125 104.402344 h -0.113281 c -0.074219 0 -0.136719 0.074218 -0.136719 0.164062 v 1.8125 c 0 0.085938 0.0625 0.160156 0.136719 0.160156 h 0.113281 c 0.074219 0 0.136719 -0.074218 0.136719 -0.160156 v -1.8125 c 0 -0.089844 -0.0625 -0.164062 -0.136719 -0.164062 z m 0 0"/>
        <path d="m 61.304688 104.402344 h -0.109376 c -0.078124 0 -0.140624 0.074218 -0.140624 0.164062 v 1.8125 c 0 0.085938 0.0625 0.160156 0.140624 0.160156 h 0.109376 c 0.074218 0 0.136718 -0.074218 0.136718 -0.160156 v -1.8125 c 0 -0.089844 -0.0625 -0.164062 -0.136718 -0.164062 z m 0 0"/>
        <path d="m 61.832031 104.402344 h -0.113281 c -0.074219 0 -0.136719 0.074218 -0.136719 0.164062 v 1.8125 c 0 0.085938 0.0625 0.160156 0.136719 0.160156 h 0.113281 c 0.074219 0 0.136719 -0.074218 0.136719 -0.160156 v -1.8125 c 0 -0.089844 -0.0625 -0.164062 -0.136719 -0.164062 z m 0 0"/>
        <path d="m 62.355469 104.402344 h -0.109375 c -0.078125 0 -0.140625 0.074218 -0.140625 0.164062 v 1.8125 c 0 0.085938 0.0625 0.160156 0.140625 0.160156 h 0.109375 c 0.074219 0 0.136719 -0.074218 0.136719 -0.160156 v -1.8125 c 0 -0.089844 -0.0625 -0.164062 -0.136719 -0.164062 z m 0 0"/>
        <path d="m 62.882812 104.402344 h -0.113281 c -0.074219 0 -0.136719 0.074218 -0.136719 0.164062 v 1.8125 c 0 0.085938 0.0625 0.160156 0.136719 0.160156 h 0.113281 c 0.074219 0 0.136719 -0.074218 0.136719 -0.160156 v -1.8125 c 0 -0.089844 -0.0625 -0.164062 -0.136719 -0.164062 z m 0 0"/>
        <path d="m 63.40625 104.402344 h -0.109375 c -0.078125 0 -0.140625 0.074218 -0.140625 0.164062 v 1.8125 c 0 0.085938 0.0625 0.160156 0.140625 0.160156 h 0.109375 c 0.074219 0 0.136719 -0.074218 0.136719 -0.160156 v -1.8125 c 0 -0.089844 -0.0625 -0.164062 -0.136719 -0.164062 z m 0 0"/>
        <path d="m 63.933594 104.402344 h -0.113282 c -0.074218 0 -0.136718 0.074218 -0.136718 0.164062 v 1.8125 c 0 0.085938 0.0625 0.160156 0.136718 0.160156 h 0.113282 c 0.074218 0 0.136718 -0.074218 0.136718 -0.160156 v -1.8125 c 0 -0.089844 -0.0625 -0.164062 -0.136718 -0.164062 z m 0 0"/>
        <path d="m 64.457031 104.402344 h -0.109375 c -0.078125 0 -0.140625 0.074218 -0.140625 0.164062 v 1.8125 c 0 0.085938 0.0625 0.160156 0.140625 0.160156 h 0.109375 c 0.074219 0 0.136719 -0.074218 0.136719 -0.160156 v -1.8125 c 0 -0.089844 -0.0625 -0.164062 -0.136719 -0.164062 z m 0 0"/>
        <path d="m 64.984375 104.402344 h -0.113281 c -0.074219 0 -0.136719 0.074218 -0.136719 0.164062 v 1.8125 c 0 0.085938 0.0625 0.160156 0.136719 0.160156 h 0.113281 c 0.074219 0 0.136719 -0.074218 0.136719 -0.160156 v -1.8125 c 0 -0.089844 -0.0625 -0.164062 -0.136719 -0.164062 z m 0 0"/>
        <path d="m 65.507812 104.402344 h -0.109374 c -0.078126 0 -0.140626 0.074218 -0.140626 0.164062 v 1.8125 c 0 0.085938 0.0625 0.160156 0.140626 0.160156 h 0.109374 c 0.074219 0 0.136719 -0.074218 0.136719 -0.160156 v -1.8125 c 0 -0.089844 -0.0625 -0.164062 -0.136719 -0.164062 z m 0 0"/>
        <path d="m 66.035156 104.402344 h -0.113281 c -0.074219 0 -0.136719 0.074218 -0.136719 0.164062 v 1.8125 c 0 0.085938 0.0625 0.160156 0.136719 0.160156 h 0.113281 c 0.074219 0 0.136719 -0.074218 0.136719 -0.160156 v -1.8125 c 0 -0.089844 -0.0625 -0.164062 -0.136719 -0.164062 z m 0 0"/>
        <path d="m 66.558594 104.402344 h -0.109375 c -0.078125 0 -0.140625 0.074218 -0.140625 0.164062 v 1.8125 c 0 0.085938 0.0625 0.160156 0.140625 0.160156 h 0.109375 c 0.074218 0 0.136718 -0.074218 0.136718 -0.160156 v -1.8125 c 0 -0.089844 -0.0625 -0.164062 -0.136718 -0.164062 z m 0 0"/>
        <path d="m 67.085938 104.402344 h -0.113282 c -0.074218 0 -0.136718 0.074218 -0.136718 0.164062 v 1.8125 c 0 0.085938 0.0625 0.160156 0.136718 0.160156 h 0.113282 c 0.074218 0 0.136718 -0.074218 0.136718 -0.160156 v -1.8125 c 0 -0.089844 -0.0625 -0.164062 -0.136718 -0.164062 z m 0 0"/>
        <path d="m 67.609375 104.402344 h -0.109375 c -0.078125 0 -0.140625 0.074218 -0.140625 0.164062 v 1.8125 c 0 0.085938 0.0625 0.160156 0.140625 0.160156 h 0.109375 c 0.074219 0 0.136719 -0.074218 0.136719 -0.160156 v -1.8125 c 0 -0.089844 -0.0625 -0.164062 -0.136719 -0.164062 z m 0 0"/>
        <path d="m 68.136719 104.402344 h -0.113281 c -0.074219 0 -0.136719 0.074218 -0.136719 0.164062 v 1.8125 c 0 0.085938 0.0625 0.160156 0.136719 0.160156 h 0.113281 c 0.074219 0 0.136719 -0.074218 0.136719 -0.160156 v -1.8125 c 0 -0.089844 -0.0625 -0.164062 -0.136719 -0.164062 z m 0 0"/>
        <path d="m 68.660156 104.402344 h -0.109375 c -0.078125 0 -0.140625 0.074218 -0.140625 0.164062 v 1.8125 c 0 0.085938 0.0625 0.160156 0.140625 0.160156 h 0.109375 c 0.074219 0 0.136719 -0.074218 0.136719 -0.160156 v -1.8125 c 0 -0.089844 -0.0625 -0.164062 -0.136719 -0.164062 z m 0 0"/>
        <path d="m 69.1875 104.402344 h -0.113281 c -0.074219 0 -0.136719 0.074218 -0.136719 0.164062 v 1.8125 c 0 0.085938 0.0625 0.160156 0.136719 0.160156 h 0.113281 c 0.074219 0 0.136719 -0.074218 0.136719 -0.160156 v -1.8125 c 0 -0.089844 -0.0625 -0.164062 -0.136719 -0.164062 z m 0 0"/>
        <path d="m 69.710938 104.402344 h -0.109376 c -0.078124 0 -0.140624 0.074218 -0.140624 0.164062 v 1.8125 c 0 0.085938 0.0625 0.160156 0.140624 0.160156 h 0.109376 c 0.074218 0 0.136718 -0.074218 0.136718 -0.160156 v -1.8125 c 0 -0.089844 -0.0625 -0.164062 -0.136718 -0.164062 z m 0 0"/>
        <path d="m 70.238281 104.402344 h -0.113281 c -0.074219 0 -0.136719 0.074218 -0.136719 0.164062 v 1.8125 c 0 0.085938 0.0625 0.160156 0.136719 0.160156 h 0.113281 c 0.074219 0 0.136719 -0.074218 0.136719 -0.160156 v -1.8125 c 0 -0.089844 -0.0625 -0.164062 -0.136719 -0.164062 z m 0 0"/>
        <path d="m 70.761719 104.402344 h -0.109375 c -0.078125 0 -0.140625 0.074218 -0.140625 0.164062 v 1.8125 c 0 0.085938 0.0625 0.160156 0.140625 0.160156 h 0.109375 c 0.074219 0 0.136719 -0.074218 0.136719 -0.160156 v -1.8125 c 0 -0.089844 -0.0625 -0.164062 -0.136719 -0.164062 z m 0 0"/>
        <path d="m 71.289062 104.402344 h -0.113281 c -0.074219 0 -0.136719 0.074218 -0.136719 0.164062 v 1.8125 c 0 0.085938 0.0625 0.160156 0.136719 0.160156 h 0.113281 c 0.074219 0 0.136719 -0.074218 0.136719 -0.160156 v -1.8125 c 0 -0.089844 -0.0625 -0.164062 -0.136719 -0.164062 z m 0 0"/>
        <path d="m 71.8125 104.402344 h -0.109375 c -0.078125 0 -0.140625 0.074218 -0.140625 0.164062 v 1.8125 c 0 0.085938 0.0625 0.160156 0.140625 0.160156 h 0.109375 c 0.074219 0 0.136719 -0.074218 0.136719 -0.160156 v -1.8125 c 0 -0.089844 -0.0625 -0.164062 -0.136719 -0.164062 z m 0 0"/>
        <path d="m 72.339844 104.402344 h -0.113282 c -0.074218 0 -0.136718 0.074218 -0.136718 0.164062 v 1.8125 c 0 0.085938 0.0625 0.160156 0.136718 0.160156 h 0.113282 c 0.074218 0 0.136718 -0.074218 0.136718 -0.160156 v -1.8125 c 0 -0.089844 -0.0625 -0.164062 -0.136718 -0.164062 z m 0 0"/>
        <path d="m 72.863281 104.402344 h -0.109375 c -0.078125 0 -0.140625 0.074218 -0.140625 0.164062 v 1.8125 c 0 0.085938 0.0625 0.160156 0.140625 0.160156 h 0.109375 c 0.074219 0 0.136719 -0.074218 0.136719 -0.160156 v -1.8125 c 0 -0.089844 -0.0625 -0.164062 -0.136719 -0.164062 z m 0 0"/>
        <path d="m 73.390625 104.402344 h -0.113281 c -0.074219 0 -0.136719 0.074218 -0.136719 0.164062 v 1.8125 c 0 0.085938 0.0625 0.160156 0.136719 0.160156 h 0.113281 c 0.074219 0 0.136719 -0.074218 0.136719 -0.160156 v -1.8125 c 0 -0.089844 -0.0625 -0.164062 -0.136719 -0.164062 z m 0 0"/>
        <path d="m 73.914062 104.402344 h -0.109374 c -0.078126 0 -0.140626 0.074218 -0.140626 0.164062 v 1.8125 c 0 0.085938 0.0625 0.160156 0.140626 0.160156 h 0.109374 c 0.074219 0 0.136719 -0.074218 0.136719 -0.160156 v -1.8125 c 0 -0.089844 -0.0625 -0.164062 -0.136719 -0.164062 z m 0 0"/>
        <path d="m 74.4375 104.402344 h -0.109375 c -0.074219 0 -0.136719 0.074218 -0.136719 0.164062 v 1.8125 c 0 0.085938 0.0625 0.160156 0.136719 0.160156 h 0.109375 c 0.078125 0 0.140625 -0.074218 0.140625 -0.160156 v -1.8125 c 0 -0.089844 -0.0625 -0.164062 -0.140625 -0.164062 z m 0 0"/>
        <path d="m 74.964844 104.402344 h -0.109375 c -0.078125 0 -0.140625 0.058594 -0.140625 0.128906 v 1.453125 c 0 0.070313 0.0625 0.128906 0.140625 0.128906 h 0.109375 c 0.074218 0 0.136718 -0.058593 0.136718 -0.128906 v -1.453125 c 0 -0.070312 -0.0625 -0.128906 -0.136718 -0.128906 z m 0 0"/>
        <path d="m 75.488281 104.402344 h -0.109375 c -0.074218 0 -0.136718 0.074218 -0.136718 0.164062 v 1.8125 c 0 0.085938 0.0625 0.160156 0.136718 0.160156 h 0.109375 c 0.078125 0 0.140625 -0.074218 0.140625 -0.160156 v -1.8125 c 0 -0.089844 -0.0625 -0.164062 -0.140625 -0.164062 z m 0 0"/>
    </g>
    <path d="m 8 83.234375 v 9 c 0 4.433594 3.566406 8 8 8 h 96 c 4.433594 0 8 -3.566406 8 -8 v -9 c 0 4.433594 -3.566406 8 -8 8 h -96 c -4.433594 0 -8 -3.566406 -8 -8 z m 0 0" fill="#302b36"/>
    <path d="m 8 82.648438 v 9 c 0 4.433593 3.566406 8 8 8 h 96 c 4.433594 0 8 -3.566407 8 -8 v -9 c 0 4.433593 -3.566406 8 -8 8 h -96 c -4.433594 0 -8 -3.566407 -8 -8 z m 0 0" fill="url(#a)"/>
    <path d="m 16 47 h 96 c 4.417969 0 8 3.582031 8 8 v 29.648438 c 0 4.417968 -3.582031 8 -8 8 h -96 c -4.417969 0 -8 -3.582032 -8 -8 v -29.648438 c 0 -4.417969 3.582031 -8 8 -8 z m 0 0" fill="#9c3038"/>
    <path d="m 6.863281 46.460938 h 0.328125 c 0.449219 0 0.808594 0.363281 0.808594 0.808593 v 67.925781 c 0 0.445313 -0.359375 0.804688 -0.808594 0.804688 h -0.328125 c -0.445312 0 -0.808593 -0.359375 -0.808593 -0.804688 v -67.925781 c 0 -0.445312 0.363281 -0.808593 0.808593 -0.808593 z m 0 0" fill="#5e5c64"/>
    <path d="m 8 47.269531 v 0.328125 c 0 0.445313 -0.359375 0.808594 -0.808594 0.808594 h -5.515625 c -0.445312 0 -0.808593 -0.363281 -0.808593 -0.808594 v -0.328125 c 0 -0.445312 0.363281 -0.808593 0.808593 -0.808593 h 5.515625 c 0.449219 0 0.808594 0.363281 0.808594 0.808593 z m 0 0" fill="#5e5c64"/>
    <path d="m 8 57 v 25.648438 h 112 v -25.648438 z m 0 0" fill="#271818"/>
    <path d="m 63.394531 69.824219 c 0 12.128906 -9.832031 21.957031 -21.957031 21.957031 c -12.128906 0 -21.960938 -9.828125 -21.960938 -21.957031 c 0 -12.128907 9.832032 -21.957031 21.960938 -21.957031 c 12.125 0 21.957031 9.828124 21.957031 21.957031 z m 0 0" fill="url(#c)"/>
    <path d="m 61.417969 69.824219 c 0 11.035156 -8.945313 19.980469 -19.980469 19.980469 s -19.980469 -8.945313 -19.980469 -19.980469 c 0 -11.035157 8.945313 -19.980469 19.980469 -19.980469 s 19.980469 8.945312 19.980469 19.980469 z m 0 0" fill="#171420"/>
    <path d="m 108.523438 69.824219 c 0 12.128906 -9.832032 21.957031 -21.960938 21.957031 c -12.125 0 -21.957031 -9.828125 -21.957031 -21.957031 c 0 -12.128907 9.832031 -21.957031 21.957031 -21.957031 c 12.128906 0 21.960938 9.828124 21.960938 21.957031 z m 0 0" fill="url(#d)"/>
    <path d="m 106.542969 69.824219 c 0 11.035156 -8.945313 19.980469 -19.980469 19.980469 s -19.980469 -8.945313 -19.980469 -19.980469 c 0 -11.035157 8.945313 -19.980469 19.980469 -19.980469 s 19.980469 8.945312 19.980469 19.980469 z m 0 0" fill="#171420"/>
    <path d="m 59.769531 66.050781 c -0.105469 -0.503906 -0.320312 -0.863281 -0.71875 -1.191406 c -3.167969 -2.617187 -7.558593 -2.441406 -13.179687 0.527344 c -0.367188 -0.363281 -0.761719 -0.675781 -1.207032 -0.941407 c 3.871094 -3.472656 7.402344 -4.933593 10.589844 -4.375 c 0.9375 0.164063 1.589844 -0.914062 1.007813 -1.667968 c -1.292969 -1.679688 -2.761719 -3.042969 -4.53125 -4.207032 c -0.429688 -0.285156 -0.835938 -0.386718 -1.347657 -0.335937 c -4.089843 0.386719 -7.074218 3.617187 -8.945312 9.691406 c -0.519531 0 -1.019531 0.0625 -1.523438 0.1875 c 0.28125 -5.195312 1.746094 -8.722656 4.394532 -10.582031 c 0.78125 -0.546875 0.480468 -1.769531 -0.464844 -1.894531 c -2.101562 -0.269531 -4.105469 -0.195313 -6.179688 0.230469 c -0.503906 0.105468 -0.863281 0.320312 -1.191406 0.714843 c -2.617187 3.167969 -2.441406 7.5625 0.527344 13.179688 c -0.367188 0.367187 -0.675781 0.765625 -0.941406 1.210937 c -3.476563 -3.875 -4.933594 -7.402344 -4.378906 -10.589844 c 0.164062 -0.941406 -0.910157 -1.589843 -1.667969 -1.007812 c -1.675781 1.292969 -3.042969 2.761719 -4.207031 4.53125 c -0.28125 0.429688 -0.382813 0.835938 -0.335938 1.347656 c 0.390625 4.089844 3.621094 7.074219 9.695312 8.945313 c 0 0.519531 0.058594 1.019531 0.1875 1.523437 c -5.195312 -0.285156 -8.722656 -1.75 -10.582031 -4.394531 c -0.550781 -0.78125 -1.769531 -0.480469 -1.894531 0.464844 c -0.269531 2.101562 -0.195312 4.105469 0.230469 6.179687 c 0.101562 0.503906 0.320312 0.863282 0.714843 1.191406 c 3.167969 2.617188 7.5625 2.441407 13.179688 -0.527343 c 0.367188 0.363281 0.765625 0.675781 1.207031 0.941406 c -3.871093 3.472656 -7.402343 4.933594 -10.585937 4.375 c -0.941406 -0.164063 -1.59375 0.914063 -1.011719 1.667969 c 1.292969 1.679687 2.765625 3.042968 4.53125 4.207031 c 0.429687 0.285156 0.839844 0.386719 1.351563 0.335937 c 4.089843 -0.386718 7.070312 -3.617187 8.945312 -9.691406 c 0.515625 0 1.015625 -0.0625 1.519531 -0.1875 c -0.28125 5.195313 -1.746093 8.722656 -4.394531 10.582032 c -0.777344 0.546874 -0.476562 1.769531 0.46875 1.890624 c 2.097656 0.273438 4.105469 0.199219 6.179688 -0.226562 c 0.503906 -0.105469 0.863281 -0.320312 1.1875 -0.71875 c 2.621093 -3.164062 2.445312 -7.558594 -0.527344 -13.175781 c 0.367187 -0.367188 0.679687 -0.765625 0.945312 -1.210938 c 3.472656 3.875 4.933594 7.402344 4.375 10.589844 c -0.164062 0.941406 0.914063 1.589844 1.667969 1.007813 c 1.675781 -1.292969 3.042969 -2.761719 4.207031 -4.53125 c 0.285156 -0.429688 0.382813 -0.835938 0.335938 -1.347657 c -0.390625 -4.089843 -3.621094 -7.074219 -9.691406 -8.945312 c 0 -0.519531 -0.0625 -1.019531 -0.1875 -1.523438 c 5.195312 0.285157 8.722656 1.746094 10.582031 4.394531 c 0.546875 0.78125 1.769531 0.480469 1.890625 -0.464843 c 0.273437 -2.101563 0.199218 -4.105469 -0.226563 -6.179688 z m -18.332031 9 c -2.886719 0 -5.230469 -2.339843 -5.230469 -5.226562 s 2.34375 -5.226563 5.230469 -5.226563 s 5.226562 2.339844 5.226562 5.226563 s -2.339843 5.226562 -5.226562 5.226562 z m 0 0"/>
    <path d="m 39.914062 63.738281 c 0.28125 -5.195312 1.746094 -8.722656 4.394532 -10.582031 c 0.78125 -0.546875 0.480468 -1.769531 -0.464844 -1.894531 c -2.101562 -0.269531 -4.105469 -0.195313 -6.179688 0.230469 c -0.503906 0.105468 -0.863281 0.320312 -1.191406 0.714843 c -2.617187 3.167969 -2.441406 7.5625 0.527344 13.179688 z m 0 0" fill="url(#f)"/>
    <path d="m 44.664062 64.445312 c 3.871094 -3.472656 7.402344 -4.933593 10.589844 -4.375 c 0.9375 0.164063 1.589844 -0.914062 1.007813 -1.667968 c -1.292969 -1.679688 -2.761719 -3.042969 -4.53125 -4.207032 c -0.429688 -0.285156 -0.835938 -0.386718 -1.347657 -0.335937 c -4.089843 0.386719 -7.074218 3.617187 -8.945312 9.691406 z m 0 0" fill="url(#g)"/>
    <path d="m 47.523438 68.300781 c 5.195312 0.285157 8.722656 1.75 10.582031 4.394531 c 0.546875 0.78125 1.769531 0.480469 1.890625 -0.464843 c 0.273437 -2.101563 0.199218 -4.105469 -0.226563 -6.179688 c -0.105469 -0.503906 -0.320312 -0.863281 -0.71875 -1.191406 c -3.167969 -2.617187 -7.558593 -2.441406 -13.179687 0.527344 z m 0 0" fill="url(#h)"/>
    <path d="m 46.816406 73.050781 c 3.472656 3.875 4.933594 7.402344 4.375 10.589844 c -0.164062 0.941406 0.914063 1.589844 1.667969 1.007813 c 1.675781 -1.292969 3.042969 -2.761719 4.207031 -4.53125 c 0.285156 -0.429688 0.382813 -0.835938 0.335938 -1.347657 c -0.390625 -4.089843 -3.621094 -7.074219 -9.691406 -8.945312 z m 0 0" fill="url(#i)"/>
    <path d="m 42.957031 75.910156 c -0.28125 5.195313 -1.746093 8.722656 -4.394531 10.582032 c -0.777344 0.546874 -0.476562 1.769531 0.46875 1.890624 c 2.097656 0.273438 4.105469 0.199219 6.179688 -0.226562 c 0.503906 -0.105469 0.863281 -0.320312 1.1875 -0.71875 c 2.621093 -3.164062 2.445312 -7.558594 -0.527344 -13.175781 z m 0 0" fill="url(#j)"/>
    <path d="m 38.207031 75.203125 c -3.871093 3.472656 -7.402343 4.933594 -10.585937 4.375 c -0.941406 -0.164063 -1.59375 0.914063 -1.011719 1.667969 c 1.292969 1.679687 2.765625 3.042968 4.53125 4.207031 c 0.429687 0.285156 0.839844 0.386719 1.351563 0.335937 c 4.089843 -0.386718 7.070312 -3.617187 8.945312 -9.691406 z m 0 0" fill="url(#k)"/>
    <path d="m 35.351562 71.34375 c -5.195312 -0.28125 -8.722656 -1.746094 -10.582031 -4.390625 c -0.550781 -0.78125 -1.769531 -0.480469 -1.894531 0.464844 c -0.269531 2.101562 -0.195312 4.105469 0.230469 6.179687 c 0.101562 0.503906 0.320312 0.863282 0.714843 1.191406 c 3.167969 2.617188 7.5625 2.441407 13.179688 -0.527343 z m 0 0" fill="url(#l)"/>
    <path d="m 36.058594 66.597656 c -3.476563 -3.875 -4.933594 -7.402344 -4.378906 -10.589844 c 0.164062 -0.941406 -0.910157 -1.589843 -1.667969 -1.007812 c -1.675781 1.292969 -3.042969 2.761719 -4.207031 4.53125 c -0.28125 0.429688 -0.382813 0.835938 -0.335938 1.347656 c 0.390625 4.089844 3.621094 7.074219 9.695312 8.945313 z m 0 0" fill="url(#m)"/>
    <path d="m 47.898438 69.824219 c 0 3.574219 -2.894532 6.46875 -6.460938 6.46875 c -3.570312 0 -6.464844 -2.894531 -6.464844 -6.46875 s 2.894532 -6.46875 6.464844 -6.46875 c 3.566406 0 6.460938 2.894531 6.460938 6.46875 z m 0 0" fill="url(#n)"/>
    <path d="m 46.957031 69.824219 c 0 3.050781 -2.472656 5.523437 -5.519531 5.523437 c -3.050781 0 -5.519531 -2.472656 -5.519531 -5.523437 s 2.46875 -5.523438 5.519531 -5.523438 c 3.046875 0 5.519531 2.472657 5.519531 5.523438 z m 0 0" fill="#342f3b"/>
    <path d="m 104.894531 66.050781 c -0.101562 -0.503906 -0.320312 -0.863281 -0.714843 -1.191406 c -3.167969 -2.617187 -7.5625 -2.441406 -13.179688 0.527344 c -0.367188 -0.363281 -0.765625 -0.675781 -1.207031 -0.941407 c 3.871093 -3.472656 7.402343 -4.933593 10.585937 -4.375 c 0.941406 0.164063 1.59375 -0.914062 1.011719 -1.667968 c -1.292969 -1.679688 -2.765625 -3.042969 -4.53125 -4.207032 c -0.429687 -0.285156 -0.839844 -0.386718 -1.351563 -0.335937 c -4.089843 0.386719 -7.070312 3.617187 -8.945312 9.691406 c -0.515625 0 -1.015625 0.0625 -1.519531 0.1875 c 0.28125 -5.195312 1.746093 -8.722656 4.394531 -10.582031 c 0.777344 -0.546875 0.476562 -1.769531 -0.46875 -1.894531 c -2.097656 -0.269531 -4.105469 -0.195313 -6.179688 0.230469 c -0.503906 0.105468 -0.863281 0.320312 -1.1875 0.714843 c -2.621093 3.167969 -2.445312 7.5625 0.527344 13.179688 c -0.367187 0.367187 -0.679687 0.765625 -0.945312 1.210937 c -3.472656 -3.875 -4.933594 -7.402344 -4.375 -10.589844 c 0.164062 -0.941406 -0.914063 -1.589843 -1.667969 -1.007812 c -1.675781 1.292969 -3.042969 2.761719 -4.207031 4.53125 c -0.285156 0.429688 -0.382813 0.835938 -0.335938 1.347656 c 0.390625 4.089844 3.621094 7.074219 9.691406 8.945313 c 0 0.519531 0.0625 1.019531 0.1875 1.523437 c -5.195312 -0.285156 -8.722656 -1.75 -10.582031 -4.394531 c -0.546875 -0.78125 -1.769531 -0.480469 -1.890625 0.464844 c -0.273437 2.101562 -0.199218 4.105469 0.226563 6.179687 c 0.105469 0.503906 0.320312 0.863282 0.71875 1.191406 c 3.167969 2.617188 7.558593 2.441407 13.179687 -0.527343 c 0.367188 0.363281 0.761719 0.675781 1.207032 0.941406 c -3.871094 3.472656 -7.402344 4.933594 -10.589844 4.375 c -0.9375 -0.164063 -1.589844 0.914063 -1.007813 1.667969 c 1.292969 1.679687 2.761719 3.042968 4.53125 4.207031 c 0.429688 0.285156 0.835938 0.386719 1.347657 0.335937 c 4.089843 -0.386718 7.074218 -3.617187 8.945312 -9.691406 c 0.519531 0 1.019531 -0.0625 1.523438 -0.1875 c -0.28125 5.195313 -1.746094 8.722656 -4.394532 10.582032 c -0.78125 0.546874 -0.480468 1.769531 0.464844 1.890624 c 2.101562 0.273438 4.105469 0.199219 6.179688 -0.226562 c 0.503906 -0.105469 0.863281 -0.320312 1.191406 -0.71875 c 2.617187 -3.164062 2.441406 -7.558594 -0.527344 -13.175781 c 0.367188 -0.367188 0.675781 -0.765625 0.941406 -1.210938 c 3.476563 3.875 4.933594 7.402344 4.378906 10.589844 c -0.164062 0.941406 0.910157 1.589844 1.667969 1.007813 c 1.675781 -1.292969 3.042969 -2.761719 4.207031 -4.53125 c 0.28125 -0.429688 0.382813 -0.835938 0.335938 -1.347657 c -0.390625 -4.089843 -3.621094 -7.074219 -9.695312 -8.945312 c 0 -0.519531 -0.058594 -1.019531 -0.1875 -1.523438 c 5.195312 0.285157 8.722656 1.746094 10.582031 4.394531 c 0.550781 0.78125 1.769531 0.480469 1.894531 -0.464843 c 0.269531 -2.101563 0.195312 -4.105469 -0.230469 -6.179688 z m -18.332031 9 c -2.886719 0 -5.226562 -2.339843 -5.226562 -5.226562 s 2.339843 -5.226563 5.226562 -5.226563 s 5.230469 2.339844 5.230469 5.226563 s -2.34375 5.226562 -5.230469 5.226562 z m 0 0"/>
    <path d="m 85.042969 63.738281 c 0.28125 -5.195312 1.746093 -8.722656 4.394531 -10.582031 c 0.777344 -0.546875 0.476562 -1.769531 -0.46875 -1.894531 c -2.097656 -0.269531 -4.105469 -0.195313 -6.179688 0.230469 c -0.503906 0.105468 -0.863281 0.320312 -1.1875 0.714843 c -2.621093 3.167969 -2.445312 7.5625 0.527344 13.179688 z m 0 0" fill="url(#o)"/>
    <path d="m 89.792969 64.445312 c 3.871093 -3.472656 7.402343 -4.933593 10.585937 -4.375 c 0.941406 0.164063 1.59375 -0.914062 1.011719 -1.667968 c -1.292969 -1.679688 -2.765625 -3.042969 -4.53125 -4.207032 c -0.429687 -0.285156 -0.839844 -0.386718 -1.351563 -0.335937 c -4.089843 0.386719 -7.070312 3.617187 -8.945312 9.691406 z m 0 0" fill="url(#p)"/>
    <path d="m 92.648438 68.300781 c 5.195312 0.285157 8.722656 1.75 10.582031 4.394531 c 0.550781 0.78125 1.769531 0.480469 1.894531 -0.464843 c 0.269531 -2.101563 0.195312 -4.105469 -0.230469 -6.179688 c -0.101562 -0.503906 -0.320312 -0.863281 -0.714843 -1.191406 c -3.167969 -2.617187 -7.5625 -2.441406 -13.179688 0.527344 z m 0 0" fill="url(#q)"/>
    <path d="m 91.941406 73.050781 c 3.476563 3.875 4.933594 7.402344 4.378906 10.589844 c -0.164062 0.941406 0.910157 1.589844 1.667969 1.007813 c 1.675781 -1.292969 3.042969 -2.761719 4.207031 -4.53125 c 0.28125 -0.429688 0.382813 -0.835938 0.335938 -1.347657 c -0.390625 -4.089843 -3.621094 -7.074219 -9.695312 -8.945312 z m 0 0" fill="url(#r)"/>
    <path d="m 88.085938 75.910156 c -0.28125 5.195313 -1.746094 8.722656 -4.394532 10.582032 c -0.78125 0.546874 -0.480468 1.769531 0.464844 1.890624 c 2.101562 0.273438 4.105469 0.199219 6.179688 -0.226562 c 0.503906 -0.105469 0.863281 -0.320312 1.191406 -0.71875 c 2.617187 -3.164062 2.441406 -7.558594 -0.527344 -13.175781 z m 0 0" fill="url(#s)"/>
    <path d="m 83.335938 75.203125 c -3.871094 3.472656 -7.402344 4.933594 -10.589844 4.375 c -0.9375 -0.164063 -1.589844 0.914063 -1.007813 1.667969 c 1.292969 1.679687 2.761719 3.042968 4.53125 4.207031 c 0.429688 0.285156 0.835938 0.386719 1.347657 0.335937 c 4.089843 -0.386718 7.074218 -3.617187 8.945312 -9.691406 z m 0 0" fill="url(#t)"/>
    <path d="m 80.476562 71.34375 c -5.195312 -0.28125 -8.722656 -1.746094 -10.582031 -4.390625 c -0.546875 -0.78125 -1.769531 -0.480469 -1.890625 0.464844 c -0.273437 2.101562 -0.199218 4.105469 0.226563 6.179687 c 0.105469 0.503906 0.320312 0.863282 0.71875 1.191406 c 3.167969 2.617188 7.558593 2.441407 13.179687 -0.527343 z m 0 0" fill="url(#u)"/>
    <path d="m 81.183594 66.597656 c -3.472656 -3.875 -4.933594 -7.402344 -4.375 -10.589844 c 0.164062 -0.941406 -0.914063 -1.589843 -1.667969 -1.007812 c -1.675781 1.292969 -3.042969 2.761719 -4.207031 4.53125 c -0.285156 0.429688 -0.382813 0.835938 -0.335938 1.347656 c 0.390625 4.089844 3.621094 7.074219 9.691406 8.945313 z m 0 0" fill="url(#v)"/>
    <path d="m 93.027344 69.824219 c 0 3.574219 -2.894532 6.46875 -6.464844 6.46875 c -3.566406 0 -6.460938 -2.894531 -6.460938 -6.46875 s 2.894532 -6.46875 6.460938 -6.46875 c 3.570312 0 6.464844 2.894531 6.464844 6.46875 z m 0 0" fill="url(#w)"/>
    <path d="m 92.082031 69.824219 c 0 3.050781 -2.46875 5.523437 -5.519531 5.523437 c -3.046875 0 -5.519531 -2.472656 -5.519531 -5.523437 s 2.472656 -5.523438 5.519531 -5.523438 c 3.050781 0 5.519531 2.472657 5.519531 5.523438 z m 0 0" fill="#342f3b"/>
</svg>
